<svg width="269" height="260" viewBox="0 0 269 260" fill="none" xmlns="http://www.w3.org/2000/svg">
<rect width="129.467" height="180.525" transform="matrix(0.866025 0.5 -0.866025 0.5 156.813 104.097)" fill="#F0F0F0"/>
<g filter="url(#filter0_f_35_1655)">
<path d="M227.43 165.6L157.33 206.78L87.5703 165.95L157.67 124.77L227.43 165.6Z" fill="#38A39E"/>
</g>
<path d="M227.43 165.6L157.33 206.78L87.5703 165.95L157.67 124.77L227.43 165.6Z" fill="#800080"/>
<path d="M157.879 123.712L106 153.664L157.879 183.616L209.757 153.664L157.879 123.712Z" fill="#38A39E" fill-opacity="0.5"/>
<path d="M208.61 153.664L157.879 182.954L107.147 153.664L157.879 124.375L208.61 153.664Z" stroke="url(#paint0_linear_35_1655)" stroke-width="1.14709"/>
<path d="M157.879 92.8079L106 122.76L157.879 152.712L209.757 122.76L157.879 92.8079Z" fill="#38A39E" fill-opacity="0.5"/>
<path d="M208.61 122.76L157.879 152.05L107.147 122.76L157.879 93.4708L208.61 122.76Z" stroke="url(#paint1_linear_35_1655)" stroke-width="1.14709"/>
<path d="M157.879 61.9041L106 91.8559L157.879 121.808L209.757 91.8559L157.879 61.9041Z" fill="#38A39E" fill-opacity="0.5"/>
<path d="M208.61 91.8559L157.879 121.146L107.147 91.8559L157.879 62.5664L208.61 91.8559Z" stroke="url(#paint2_linear_35_1655)" stroke-width="1.14709"/>
<path d="M157.879 31L106 60.9521L157.879 90.9038L209.757 60.9521L157.879 31Z" fill="#38A39E" fill-opacity="0.5"/>
<path d="M208.61 60.9522L157.879 90.2419L107.147 60.9522L157.879 31.6624L208.61 60.9522Z" stroke="url(#paint3_linear_35_1655)" stroke-width="1.14709"/>
<path opacity="0.36" d="M88.0002 41.18V166.18L157.76 207.01L227.87 165.83V40.83L158.11 0L88.0002 41.18Z" fill="url(#paint4_linear_35_1655)"/>
<g opacity="0.9" clip-path="url(#clip0_35_1655)">
<path d="M176.129 67.6603L165.252 61.3806C164.99 61.2292 164.843 61.0239 164.843 60.8098C164.843 60.5958 164.99 60.3904 165.252 60.239L176.588 53.6944C177.427 53.2097 177.427 52.4236 176.588 51.9391L172.706 49.6975C171.866 49.2127 170.505 49.2131 169.665 49.6977L158.398 56.2028C157.814 56.5403 156.866 56.5417 156.279 56.2057L152.698 54.1576C152.105 53.8191 152.104 53.2664 152.694 52.927L163.996 46.4275C164.839 45.9432 164.84 45.1562 163.999 44.6708L160.12 42.431C159.28 41.9462 157.919 41.9466 157.079 42.4313L125.338 60.7572C124.592 61.1877 124.592 61.8853 125.337 62.3155L155.362 79.6501C156.108 80.0807 157.316 80.0807 158.062 79.6501L176.129 69.219C176.875 68.7884 176.875 68.0909 176.129 67.6603ZM159.111 71.5962C158.134 72.1604 156.549 72.1605 155.572 71.5963L152.503 69.8247C151.526 69.2604 151.526 68.3455 152.503 67.7813L155.572 66.0097C156.549 65.4454 158.134 65.4454 159.111 66.0097L162.179 67.7813C163.157 68.3455 163.157 69.2603 162.179 69.8246L159.111 71.5962Z" fill="#FF6600"/>
</g>
<path opacity="0.75" d="M41.6692 212.976C40.1912 212.123 39.018 211.189 38.1497 210.176C37.2999 209.173 36.6717 208.064 36.2652 206.848L42.1681 206.128C42.593 207.312 43.0641 208.267 43.5814 208.992C44.1172 209.707 44.81 210.309 45.6599 210.8C46.2696 211.152 46.87 211.403 47.4612 211.552C48.0709 211.712 48.6436 211.776 49.1794 211.744C49.7152 211.712 50.1771 211.584 50.5651 211.36C51.1193 211.04 51.3502 210.683 51.2579 210.288C51.1655 209.893 50.8884 209.467 50.4265 209.008C49.9831 208.539 49.4473 208.048 48.8191 207.536C48.2095 207.013 47.6275 206.475 47.0732 205.92C46.5375 205.355 46.1495 204.779 45.9093 204.192C45.6691 203.605 45.6784 203.013 45.937 202.416C46.2141 201.808 46.8792 201.2 47.9323 200.592C49.2071 199.856 50.5928 199.397 52.0893 199.216C53.6042 199.024 55.1654 199.104 56.7727 199.456C58.3985 199.819 59.9966 200.453 61.567 201.36C62.9896 202.181 64.1443 203.093 65.0311 204.096C65.9364 205.109 66.4814 206.107 66.6662 207.088L60.7911 207.696C60.5879 206.811 60.2091 206.016 59.6549 205.312C59.1191 204.619 58.3801 204 57.4378 203.456C56.5695 202.955 55.7196 202.667 54.8883 202.592C54.0569 202.517 53.3733 202.635 52.8375 202.944C52.3387 203.232 52.1447 203.568 52.2555 203.952C52.3849 204.325 52.6897 204.747 53.1701 205.216C53.6504 205.685 54.1954 206.181 54.8051 206.704C55.4517 207.227 56.0337 207.776 56.551 208.352C57.1053 208.928 57.5025 209.52 57.7427 210.128C58.0013 210.725 57.9828 211.333 57.6872 211.952C57.3916 212.571 56.7173 213.184 55.6642 213.792C54.4264 214.507 53.013 214.96 51.4241 215.152C49.8538 215.333 48.2187 215.243 46.519 214.88C44.8562 214.517 43.2396 213.883 41.6692 212.976ZM58.5078 222.698C57.0483 221.855 56.1153 220.868 55.7088 219.738C55.3024 218.607 55.4871 217.412 56.2631 216.154C57.076 214.895 58.554 213.647 60.6971 212.41C62.8402 211.172 64.9926 210.324 67.1542 209.866C69.3527 209.407 71.422 209.29 73.3619 209.514C75.3202 209.748 77.0292 210.287 78.4887 211.13C80.0222 212.015 80.9552 213.076 81.2877 214.314C81.6203 215.551 81.2508 216.831 80.1792 218.154L74.7752 216.602C75.311 215.994 75.5235 215.434 75.4126 214.922C75.3202 214.42 74.9785 213.999 74.3872 213.658C73.796 213.316 73.0663 213.119 72.1979 213.066C71.3481 213.023 70.3596 213.167 69.2327 213.498C68.1241 213.818 66.8771 214.378 65.4914 215.178C64.1243 215.967 63.1543 216.687 62.5816 217.338C62.0089 217.988 61.7687 218.564 61.8611 219.066C61.9719 219.578 62.3414 220.015 62.9696 220.378C63.4499 220.655 64.0227 220.826 64.6878 220.89C65.3529 220.954 66.0549 220.922 66.7939 220.794C67.5699 220.666 68.2997 220.447 68.9832 220.138L65.9071 218.362L69.8978 216.058L77.3248 220.346L75.9669 221.13C73.8422 222.356 71.7176 223.231 69.5929 223.754C67.4868 224.266 65.4822 224.431 63.5792 224.25C61.6948 224.079 60.0043 223.562 58.5078 222.698ZM69.0833 228.452L88.4822 217.251L101.895 224.995L97.9046 227.299L89.2582 222.307L85.4338 224.516L91.0318 227.747L87.152 229.987L81.554 226.755L73.8499 231.204L69.0833 228.452Z" fill="black"/>
<defs>
<filter id="filter0_f_35_1655" x="52.5703" y="89.7698" width="209.86" height="152.01" filterUnits="userSpaceOnUse" color-interpolation-filters="sRGB">
<feFlood flood-opacity="0" result="BackgroundImageFix"/>
<feBlend mode="normal" in="SourceGraphic" in2="BackgroundImageFix" result="shape"/>
<feGaussianBlur stdDeviation="17.5" result="effect1_foregroundBlur_35_1655"/>
</filter>
<linearGradient id="paint0_linear_35_1655" x1="157.879" y1="123.712" x2="157.879" y2="183.616" gradientUnits="userSpaceOnUse">
<stop stop-color="white"/>
<stop offset="1" stop-color="white" stop-opacity="0"/>
</linearGradient>
<linearGradient id="paint1_linear_35_1655" x1="157.879" y1="92.8078" x2="157.879" y2="152.712" gradientUnits="userSpaceOnUse">
<stop stop-color="white"/>
<stop offset="1" stop-color="white" stop-opacity="0"/>
</linearGradient>
<linearGradient id="paint2_linear_35_1655" x1="157.879" y1="61.9041" x2="157.879" y2="121.808" gradientUnits="userSpaceOnUse">
<stop stop-color="white"/>
<stop offset="1" stop-color="white" stop-opacity="0"/>
</linearGradient>
<linearGradient id="paint3_linear_35_1655" x1="157.879" y1="31.0001" x2="157.879" y2="90.9039" gradientUnits="userSpaceOnUse">
<stop stop-color="white"/>
<stop offset="1" stop-color="white" stop-opacity="0"/>
</linearGradient>
<linearGradient id="paint4_linear_35_1655" x1="158" y1="-81.5" x2="395.992" y2="154.529" gradientUnits="userSpaceOnUse">
<stop stop-color="#37C2BC" stop-opacity="0"/>
<stop offset="0.700235" stop-color="#635BFF"/>
</linearGradient>
<clipPath id="clip0_35_1655">
<rect width="40" height="40" fill="white" transform="matrix(0.866025 0.5 -0.866025 0.5 157.641 41)"/>
</clipPath>
</defs>
</svg>
