<svg width="306" height="170" viewBox="0 0 306 170" fill="none" xmlns="http://www.w3.org/2000/svg">
<g clip-path="url(#clip0_35_1712)">
<rect width="75.8355" height="181.458" transform="matrix(0.866025 0.5 -0.866025 0.5 240.147 0.188965)" fill="#A52A2A"/>
<path d="M237.521 68.2666C236.043 69.12 234.426 69.7973 232.671 70.2986C230.935 70.7893 229.013 71.152 226.907 71.3866L225.66 67.9786C227.711 67.7333 229.364 67.4613 230.62 67.1626C231.858 66.8533 232.902 66.4533 233.752 65.9626C234.362 65.6106 234.796 65.264 235.054 64.9226C235.332 64.5706 235.442 64.24 235.387 63.9306C235.332 63.6213 235.11 63.3546 234.722 63.1306C234.168 62.8106 233.549 62.6773 232.865 62.7306C232.182 62.784 231.443 62.944 230.648 63.2106C229.835 63.4666 228.985 63.776 228.099 64.1386C227.193 64.4906 226.26 64.8266 225.3 65.1466C224.32 65.456 223.323 65.68 222.307 65.8186C221.29 65.9573 220.265 65.952 219.23 65.8026C218.177 65.6426 217.124 65.2586 216.071 64.6506C214.796 63.9146 214.002 63.1146 213.688 62.2506C213.355 61.376 213.494 60.4746 214.104 59.5466C214.732 58.608 215.831 57.6853 217.401 56.7786C218.824 55.9573 220.404 55.2906 222.14 54.7786C223.895 54.256 225.623 53.9413 227.323 53.8346L228.376 57.2266C226.842 57.344 225.466 57.5626 224.247 57.8826C223.046 58.192 221.974 58.6186 221.032 59.1626C220.163 59.664 219.665 60.1546 219.535 60.6346C219.406 61.1146 219.609 61.5093 220.145 61.8186C220.644 62.1066 221.226 62.2186 221.891 62.1546C222.538 62.08 223.267 61.904 224.08 61.6266C224.893 61.3493 225.752 61.0346 226.658 60.6826C227.563 60.3093 228.514 59.9733 229.512 59.6746C230.51 59.3546 231.535 59.1253 232.588 58.9866C233.623 58.8373 234.676 58.848 235.747 59.0186C236.819 59.1893 237.881 59.5786 238.934 60.1866C240.172 60.9013 240.957 61.7173 241.29 62.6346C241.604 63.5413 241.447 64.4853 240.819 65.4666C240.191 66.4266 239.091 67.36 237.521 68.2666ZM247.099 62.3849L227.7 51.1849L235.099 46.9129C236.485 46.1129 237.963 45.5795 239.533 45.3129C241.122 45.0355 242.674 45.0142 244.189 45.2489C245.722 45.4729 247.108 45.9422 248.346 46.6569C249.51 47.3289 250.276 48.1022 250.646 48.9769C251.034 49.8409 250.988 50.7315 250.507 51.6489C250.046 52.5555 249.122 53.4089 247.736 54.2089L245.103 55.7289L251.865 59.6329L247.099 62.3849ZM241.279 53.5209L243.08 52.4809C244.041 51.9262 244.521 51.3822 244.521 50.8489C244.521 50.2942 244.18 49.8195 243.496 49.4249C242.794 49.0195 241.972 48.8222 241.03 48.8329C240.106 48.8329 239.164 49.1102 238.203 49.6649L236.402 50.7049L241.279 53.5209ZM263.716 52.7911L244.317 41.5911L251.661 37.3511C252.991 36.5831 254.432 36.0498 255.984 35.7511C257.536 35.4525 259.06 35.4045 260.556 35.6071C262.071 35.7991 263.438 36.2471 264.658 36.9511C265.896 37.6658 266.681 38.4711 267.013 39.3671C267.328 40.2525 267.217 41.1378 266.681 42.0231L278.625 44.1831L273.609 47.0791L263.023 44.9991L261.388 45.9431L268.482 50.0391L263.716 52.7911ZM257.619 43.7671L259.753 42.5351C260.492 42.1085 260.87 41.6445 260.889 41.1431C260.926 40.6311 260.603 40.1778 259.919 39.7831C259.217 39.3778 258.432 39.1911 257.563 39.2231C256.695 39.2338 255.891 39.4525 255.152 39.8791L253.018 41.1111L257.619 43.7671Z" fill="white"/>
<path d="M77.6175 149.208L13.588 112.241C12.7331 111.747 12.0396 112.272 12.0396 113.411V130.553C12.0396 131.35 12.5252 132.279 13.1236 132.625L76.0681 168.965C76.923 169.459 77.6175 168.934 77.6175 167.795V149.208ZM145.348 112.314C145.348 111.429 144.81 111.022 144.146 111.404L77.6175 149.815V167.454C77.6175 168.782 78.4257 169.393 79.4214 168.818L144.296 131.363C144.877 131.028 145.348 130.126 145.348 129.352V112.314Z" fill="#BBC6E6"/>
<path d="M79.0689 90.6777L27.0283 120.723L78.4531 150.414L130.495 120.367L79.0689 90.6777Z" fill="#243462"/>
<path d="M74.6208 149.656L81.5867 149.118L82.8797 162.11L78.3403 164.732C78.3403 164.732 77.8206 165.273 76.5432 164.529C75.2659 163.785 74.6208 149.656 74.6208 149.656Z" fill="#BBC6E6"/>
<path d="M18.3422 121.888L16.6238 120.896V129.755L18.3422 130.747V121.888ZM23.1205 124.647L21.4021 123.655V132.514L23.1205 133.506V124.647ZM27.8988 127.405L26.1804 126.414V135.272L27.8988 136.264V127.405ZM32.6761 130.164L30.9577 129.171V138.03L32.6761 139.023V130.164ZM67.5541 152.871C68.5799 153.464 69.4133 154.907 69.4133 156.092C69.4133 157.277 68.5799 157.758 67.5541 157.165C66.5273 156.573 65.6938 155.13 65.6938 153.945C65.6938 152.76 66.5273 152.279 67.5541 152.871Z" fill="black"/>
<path d="M75.4028 168.581C75.4028 168.581 77.5894 170.339 79.8635 168.563C82.1365 166.787 79.9674 161.75 79.9674 161.75L75.4543 161.765L75.4028 168.581Z" fill="#BBC6E6"/>
<path d="M77.6177 150.643C77.6177 150.643 78.2442 150.743 78.9592 150.502C79.3283 150.378 79.6324 150.297 79.9976 150.019L83.5791 147.94V156.409L80.4027 158.265V163.534L83.5791 161.722V166.417L79.6761 168.72C79.6761 168.72 79.272 168.965 78.8766 169.133C78.6594 169.224 78.4311 169.286 78.1976 169.317C78.082 169.329 77.9693 169.346 77.8732 169.352C77.7245 169.36 77.6177 169.357 77.6177 169.357V150.643Z" fill="#8EA1D6"/>
<path d="M12.137 112.286C12.3711 111.899 13.4445 112.158 13.4445 112.158L76.2539 148.421C76.2539 148.421 77.1515 149.309 78.7504 148.554C80.2046 147.867 134.059 116.649 143.838 110.98C144.815 110.413 145.348 111.708 145.348 111.708L145.345 113.24L80.0579 150.933C80.0579 150.933 78.1763 152.573 74.8551 150.748C71.5349 148.923 12.0398 114.481 12.0398 114.481C12.0398 114.481 11.9029 112.674 12.137 112.286Z" fill="#F3F5FB"/>
<path d="M77.676 75.0539L79.3575 74.369L144.124 110.345L143.997 111.055L139.637 113.415L77.676 77.6242V75.0539Z" fill="#F3F5FB"/>
<path d="M144.124 110.345C144.124 110.345 145.441 110.753 145.348 111.783L144.579 112.086L143.719 111.425L143.581 110.657L144.124 110.345ZM13.9581 112.206L13.925 110.257L75.665 74.6118L77.6758 75.0538V77.4668L15.8406 113.167L13.9581 112.206Z" fill="#F3F5FB"/>
<path d="M75.5776 74.6624C75.5776 74.6624 77.1474 73.3928 79.3573 74.369L79.0834 75.1928L77.6176 76.5925L76.8055 76.372L76.1721 75.593L75.5776 74.6624Z" fill="#F3F5FB"/>
<path d="M77.6167 77.0579L77.8848 76.8276L141.745 111.717C141.935 111.821 141.987 111.911 141.993 112.013C141.999 112.116 141.957 112.231 141.778 112.332L127.715 120.348L77.5769 91.4015L77.6167 77.0579Z" fill="#375198"/>
<path d="M77.2339 76.9044C77.2339 76.9044 77.4971 76.7082 77.8847 76.8276L77.8789 76.9811L77.6156 77.1987L77.2825 77.052L77.2339 76.9044Z" fill="#375198"/>
<path d="M137.234 124.134C138.261 123.54 139.094 124.022 139.094 125.208C139.094 126.393 138.261 127.838 137.234 128.43C136.206 129.023 135.373 128.542 135.373 127.356C135.373 126.171 136.206 124.726 137.234 124.134ZM129.208 130.49C129.208 129.07 128.343 128.417 127.278 129.031L95.6846 147.271C94.6189 147.887 93.7544 149.54 93.7544 150.96C93.7544 152.38 94.6189 153.034 95.6846 152.419L127.278 134.178C128.343 133.563 129.208 131.911 129.208 130.49Z" fill="black"/>
<path d="M12.0397 113.521C12.0397 113.521 11.521 111.178 14.6499 109.839L14 110.756C17.4184 114.422 16.6451 114.951 12.4613 112.927L12.0397 113.521Z" fill="#F3F5FB"/>
<path d="M27.655 120.362L77.6178 91.516V77.1491C77.6178 77.1491 77.474 76.7644 77.202 76.9208C72.2936 79.7408 25.4286 106.675 15.6777 112.375C15.4601 112.503 15.1619 112.771 15.2318 113.079C15.2911 113.338 15.6874 113.642 15.8642 113.759C17.8604 115.091 27.655 120.362 27.655 120.362Z" fill="#375198"/>
<path d="M77.6175 128.208L13.588 91.2408C12.7331 90.7473 12.0396 91.2719 12.0396 92.4113V109.553C12.0396 110.35 12.5252 111.279 13.1236 111.625L76.0681 147.965C76.923 148.459 77.6175 147.934 77.6175 146.795V128.208ZM145.348 91.3136C145.348 90.4287 144.81 90.0217 144.146 90.4044L77.6175 128.815V146.454C77.6175 147.782 78.4257 148.393 79.4214 147.818L144.296 110.363C144.877 110.028 145.348 109.126 145.348 108.352V91.3136Z" fill="#BBC6E6"/>
<path d="M79.0689 69.6777L27.0283 99.723L78.4531 129.414L130.495 99.3675L79.0689 69.6777Z" fill="#243462"/>
<path d="M74.6208 128.656L81.5867 128.118L82.8797 141.11L78.3403 143.732C78.3403 143.732 77.8206 144.273 76.5432 143.529C75.2659 142.785 74.6208 128.656 74.6208 128.656Z" fill="#BBC6E6"/>
<path d="M18.3422 100.888L16.6238 99.896V108.755L18.3422 109.747V100.888ZM23.1205 103.647L21.4021 102.655V111.514L23.1205 112.506V103.647ZM27.8988 106.405L26.1804 105.414V114.272L27.8988 115.264V106.405ZM32.6761 109.164L30.9577 108.171V117.03L32.6761 118.023V109.164ZM67.5541 131.871C68.5799 132.464 69.4133 133.907 69.4133 135.092C69.4133 136.277 68.5799 136.758 67.5541 136.165C66.5273 135.573 65.6938 134.13 65.6938 132.945C65.6938 131.76 66.5273 131.279 67.5541 131.871Z" fill="black"/>
<path d="M75.4028 147.581C75.4028 147.581 77.5894 149.339 79.8635 147.563C82.1365 145.787 79.9674 140.75 79.9674 140.75L75.4543 140.765L75.4028 147.581Z" fill="#BBC6E6"/>
<path d="M77.6177 129.643C77.6177 129.643 78.2442 129.743 78.9592 129.502C79.3283 129.378 79.6324 129.297 79.9976 129.019L83.5791 126.94V135.409L80.4027 137.265V142.534L83.5791 140.722V145.417L79.6761 147.72C79.6761 147.72 79.272 147.965 78.8766 148.133C78.6594 148.224 78.4311 148.286 78.1976 148.317C78.082 148.329 77.9693 148.346 77.8732 148.352C77.7245 148.36 77.6177 148.357 77.6177 148.357V129.643Z" fill="#8EA1D6"/>
<path d="M12.137 91.2865C12.3711 90.8989 13.4445 91.1582 13.4445 91.1582L76.2539 127.421C76.2539 127.421 77.1515 128.309 78.7504 127.554C80.2046 126.867 134.059 95.649 143.838 89.9799C144.815 89.4126 145.348 90.7075 145.348 90.7075L145.345 92.2404L80.0579 129.933C80.0579 129.933 78.1763 131.573 74.8551 129.748C71.5349 127.923 12.0398 93.4808 12.0398 93.4808C12.0398 93.4808 11.9029 91.674 12.137 91.2865Z" fill="#F3F5FB"/>
<path d="M77.676 54.0539L79.3575 53.369L144.124 89.3447L143.997 90.0548L139.637 92.4153L77.676 56.6242V54.0539Z" fill="#F3F5FB"/>
<path d="M144.124 89.3446C144.124 89.3446 145.441 89.7526 145.348 90.7833L144.579 91.0863L143.719 90.4248L143.581 89.6574L144.124 89.3446ZM13.9581 91.2058L13.925 89.2572L75.665 53.6118L77.6758 54.0538V56.4668L15.8406 92.1675L13.9581 91.2058Z" fill="#F3F5FB"/>
<path d="M75.5776 53.6624C75.5776 53.6624 77.1474 52.3928 79.3573 53.369L79.0834 54.1928L77.6176 55.5925L76.8055 55.372L76.1721 54.593L75.5776 53.6624Z" fill="#F3F5FB"/>
<path d="M77.6167 56.0579L77.8848 55.8276L141.745 90.7173C141.935 90.8212 141.987 90.9106 141.993 91.0126C141.999 91.1155 141.957 91.2311 141.778 91.3322L127.715 99.3481L77.5769 70.4015L77.6167 56.0579Z" fill="#375198"/>
<path d="M77.2339 55.9044C77.2339 55.9044 77.4971 55.7082 77.8847 55.8276L77.8789 55.9811L77.6156 56.1987L77.2825 56.052L77.2339 55.9044Z" fill="#375198"/>
<path d="M137.234 103.134C138.261 102.54 139.094 103.022 139.094 104.208C139.094 105.393 138.261 106.838 137.234 107.43C136.206 108.023 135.373 107.542 135.373 106.356C135.373 105.171 136.206 103.726 137.234 103.134ZM129.208 109.49C129.208 108.07 128.343 107.417 127.278 108.031L95.6846 126.271C94.6189 126.887 93.7544 128.54 93.7544 129.96C93.7544 131.38 94.6189 132.034 95.6846 131.419L127.278 113.178C128.343 112.563 129.208 110.911 129.208 109.49Z" fill="black"/>
<path d="M12.0397 92.5211C12.0397 92.5211 11.521 90.1781 14.6499 88.8395L14 89.7565C17.4184 93.4216 16.6451 93.951 12.4613 91.9266L12.0397 92.5211Z" fill="#F3F5FB"/>
<path d="M27.655 99.3617L77.6178 70.516V56.1491C77.6178 56.1491 77.474 55.7644 77.202 55.9208C72.2936 58.7408 25.4286 85.6747 15.6777 91.3748C15.4601 91.5031 15.1619 91.7712 15.2318 92.0791C15.2911 92.3385 15.6874 92.6415 15.8642 92.7591C17.8604 94.0909 27.655 99.3617 27.655 99.3617Z" fill="#375198"/>
<path d="M77.8683 107.205L13.8387 70.2375C12.9839 69.744 12.2903 70.2686 12.2903 71.408V88.5493C12.2903 89.3468 12.776 90.2754 13.3744 90.6212L76.3189 126.962C77.1737 127.456 77.8683 126.931 77.8683 125.792V107.205ZM145.599 70.3103C145.599 69.4254 145.061 69.0184 144.396 69.4011L77.8683 107.812V125.451C77.8683 126.779 78.6765 127.39 79.6721 126.814L144.547 89.3594C145.128 89.0243 145.599 88.1228 145.599 87.3486V70.3103Z" fill="#BBC6E6"/>
<path d="M79.3197 48.6744L27.2791 78.7197L78.7038 108.41L130.745 78.3642L79.3197 48.6744Z" fill="#243462"/>
<path d="M74.8716 107.653L81.8375 107.115L83.1304 120.107L78.5911 122.729C78.5911 122.729 78.0714 123.27 76.794 122.526C75.5166 121.782 74.8716 107.653 74.8716 107.653Z" fill="#BBC6E6"/>
<path d="M18.5929 79.8845L16.8745 78.8927V87.7518L18.5929 88.7436V79.8845ZM23.3712 82.6433L21.6528 81.6515V90.5106L23.3712 91.5024V82.6433ZM28.1495 85.402L26.4311 84.4102V93.2684L28.1495 94.2612V85.402ZM32.9268 88.1608L31.2084 87.168V96.0272L32.9268 97.0199V88.1608ZM67.8048 110.868C68.8306 111.461 69.664 112.903 69.664 114.088C69.664 115.273 68.8306 115.754 67.8048 115.162C66.778 114.57 65.9446 113.127 65.9446 111.942C65.9446 110.756 66.778 110.276 67.8048 110.868Z" fill="black"/>
<path d="M75.6536 126.578C75.6536 126.578 77.8402 128.336 80.1142 126.56C82.3873 124.783 80.2181 119.747 80.2181 119.747L75.705 119.761L75.6536 126.578Z" fill="#BBC6E6"/>
<path d="M77.8684 108.64C77.8684 108.64 78.495 108.74 79.2099 108.499C79.579 108.374 79.8831 108.294 80.2483 108.016L83.8299 105.936V114.406L80.6534 116.261V121.531L83.8299 119.718V124.414L79.9268 126.716C79.9268 126.716 79.5227 126.962 79.1273 127.129C78.9101 127.22 78.6818 127.282 78.4483 127.314C78.3327 127.325 78.2201 127.343 78.1239 127.349C77.9753 127.357 77.8684 127.354 77.8684 127.354V108.64Z" fill="#8EA1D6"/>
<path d="M12.3877 70.2832C12.6218 69.8956 13.6952 70.1549 13.6952 70.1549L76.5047 106.418C76.5047 106.418 77.4022 107.306 79.0012 106.55C80.4553 105.863 134.31 74.6457 144.089 68.9766C145.066 68.4093 145.599 69.7042 145.599 69.7042L145.596 71.2371L80.3087 108.93C80.3087 108.93 78.4271 110.57 75.1059 108.745C71.7856 106.919 12.2906 72.4775 12.2906 72.4775C12.2906 72.4775 12.1536 70.6707 12.3877 70.2832Z" fill="#F3F5FB"/>
<path d="M77.9268 33.0506L79.6082 32.3657L144.375 68.3414L144.248 69.0515L139.887 71.412L77.9268 35.6209V33.0506Z" fill="#F3F5FB"/>
<path d="M144.375 68.3413C144.375 68.3413 145.692 68.7493 145.599 69.78L144.83 70.083L143.97 69.4215L143.832 68.6541L144.375 68.3413ZM14.2088 70.2025L14.1758 68.2539L75.9158 32.6085L77.9266 33.0505V35.4635L16.0914 71.1642L14.2088 70.2025Z" fill="#F3F5FB"/>
<path d="M75.8284 32.6591C75.8284 32.6591 77.3981 31.3895 79.6081 32.3657L79.3341 33.1895L77.8683 34.5892L77.0562 34.3687L76.4229 33.5897L75.8284 32.6591Z" fill="#F3F5FB"/>
<path d="M77.8675 35.0546L78.1356 34.8243L141.996 69.714C142.186 69.8179 142.238 69.9073 142.244 70.0093C142.25 70.1122 142.208 70.2278 142.029 70.3289L127.965 78.3448L77.8276 49.3982L77.8675 35.0546Z" fill="#375198"/>
<path d="M77.4846 34.9011C77.4846 34.9011 77.7479 34.7049 78.1355 34.8243L78.1296 34.9778L77.8664 35.1954L77.5332 35.0487L77.4846 34.9011Z" fill="#375198"/>
<path d="M137.485 82.1303C138.512 81.5368 139.345 82.0186 139.345 83.2047C139.345 84.3898 138.512 85.8343 137.485 86.4268C136.457 87.0194 135.624 86.5385 135.624 85.3525C135.624 84.1674 136.457 82.7229 137.485 82.1303ZM129.459 88.4871C129.459 87.067 128.594 86.4132 127.529 87.0281L95.9353 105.268C94.8697 105.884 94.0051 107.536 94.0051 108.956C94.0051 110.377 94.8697 111.03 95.9353 110.415L127.529 92.1746C128.594 91.5597 129.459 89.9073 129.459 88.4871Z" fill="black"/>
<path d="M12.2905 71.5178C12.2905 71.5178 11.7717 69.1748 14.9006 67.8362L14.2507 68.7532C17.6691 72.4183 16.8959 72.9477 12.7121 70.9233L12.2905 71.5178Z" fill="#F3F5FB"/>
<path d="M27.9057 78.3584L77.8685 49.5128V35.1458C77.8685 35.1458 77.7248 34.7611 77.4528 34.9175C72.5443 37.7375 25.6793 64.6714 15.9284 70.3715C15.7108 70.4998 15.4126 70.7679 15.4826 71.0758C15.5418 71.3352 15.9381 71.6382 16.1149 71.7558C18.1112 73.0876 27.9057 78.3584 27.9057 78.3584Z" fill="#375198"/>
<path d="M77.2601 92.7246L11.6821 54.8635V67.6675C11.6821 68.1988 12.0056 68.8176 12.4048 69.0478L76.2275 105.896C76.7967 106.225 77.2601 105.875 77.2601 105.116V92.7246ZM144.987 53.6221L77.2601 92.7246V105.529C77.2601 106.061 77.5836 106.306 77.9828 106.076L144.264 67.8074C144.663 67.5771 144.987 66.9584 144.987 66.426V53.6221Z" fill="#BBC6E6"/>
<path d="M76.9307 86.5359L77.26 92.7247L144.987 53.6221L145.013 48.4659L76.9307 86.5359Z" fill="#DADADA"/>
<path d="M11.8142 48.3892L11.6821 54.8635L77.2601 92.7246V86.7292L11.8142 48.3892Z" fill="#DADADA"/>
<path d="M82.9195 11.1721C80.6533 9.86359 77.2203 9.72177 75.2581 10.8544L13.1189 46.731C11.1567 47.8636 11.4034 49.8462 13.6687 51.1537L73.8884 85.9219C76.1537 87.2294 79.5876 87.3722 81.5499 86.2396L143.689 50.363C145.651 49.2304 145.405 47.2478 143.138 45.9403L82.9195 11.1721Z" fill="#BBBBBB"/>
<path d="M74.2634 90.9995L81.2293 90.4613L82.5222 103.454L77.9829 106.076C77.9829 106.076 77.4632 106.617 76.1858 105.872C74.9084 105.128 74.2634 90.9995 74.2634 90.9995Z" fill="#BBC6E6"/>
<path d="M11.6492 53.4074L75.9429 90.2962C75.9429 90.2962 77.1961 91.0024 78.795 90.2466C80.3949 89.4919 144.995 52.1368 144.995 52.1368L144.987 53.6221L79.7003 91.3152C79.7003 91.3152 77.8187 92.9549 74.4975 91.1296C71.1773 89.3044 11.6822 54.8635 11.6822 54.8635L11.6492 53.4074Z" fill="#F3F5FB"/>
<g filter="url(#filter0_f_35_1712)">
<path d="M67.1954 91.6512C68.2222 92.2438 69.0557 93.6863 69.0557 94.8714C69.0557 96.0565 68.2222 96.5373 67.1954 95.9448C66.1696 95.3522 65.3362 93.9097 65.3362 92.7246C65.3362 91.5395 66.1696 91.0587 67.1954 91.6512ZM136.877 62.7027C137.903 62.1101 138.737 62.5909 138.737 63.777C138.737 64.9631 137.903 66.4066 136.877 67.0001C135.849 67.5927 135.015 67.1109 135.015 65.9257C135.015 64.7397 135.849 63.2952 136.877 62.7027Z" fill="#00FF00"/>
<path d="M66.7734 96.6754L66.7737 96.6756C67.4411 97.0608 68.2429 97.2033 68.9323 96.8055C69.6218 96.4077 69.8994 95.6421 69.8994 94.8714C69.8994 94.0956 69.6323 93.294 69.2412 92.617C68.8501 91.94 68.2891 91.3082 67.6172 90.9204C66.9501 90.5352 66.1486 90.3927 65.4593 90.7905C64.77 91.1884 64.4924 91.954 64.4924 92.7246C64.4924 93.5004 64.7596 94.302 65.1505 94.9789C65.5414 95.6558 66.1021 96.2876 66.7734 96.6754ZM137.298 67.7311L137.299 67.7306C137.971 67.3423 138.531 66.71 138.922 66.0326C139.314 65.3552 139.581 64.5531 139.581 63.777C139.581 63.0061 139.303 62.2403 138.614 61.8421C137.924 61.4441 137.122 61.5867 136.455 61.9717C135.782 62.3596 135.221 62.9922 134.83 63.6698C134.439 64.3474 134.172 65.1497 134.172 65.9257C134.172 66.6964 134.449 67.4621 135.139 67.8602C135.828 68.2583 136.63 68.1162 137.298 67.7311Z" stroke="white" stroke-width="1.6875"/>
</g>
<path d="M67.1954 91.6512C68.2222 92.2438 69.0557 93.6863 69.0557 94.8714C69.0557 96.0565 68.2222 96.5373 67.1954 95.9448C66.1696 95.3522 65.3362 93.9097 65.3362 92.7246C65.3362 91.5395 66.1696 91.0587 67.1954 91.6512ZM136.877 62.7027C137.903 62.1101 138.737 62.5909 138.737 63.777C138.737 64.9631 137.903 66.4066 136.877 67.0001C135.849 67.5927 135.015 67.1109 135.015 65.9257C135.015 64.7397 135.849 63.2952 136.877 62.7027Z" fill="#00FF00"/>
<path d="M16.2661 59.9644L17.9845 60.9562V69.8153L16.2661 68.8235V59.9644Z" fill="black"/>
<path d="M21.0444 62.7231L22.7628 63.7149V72.574L21.0444 71.5823V62.7231Z" fill="black"/>
<path d="M25.8227 65.4819L27.5411 66.4737V75.3328L25.8227 74.341V65.4819Z" fill="black"/>
<path d="M30.6 68.2406L32.3184 69.2324V78.0916L30.6 77.0988V68.2406Z" fill="black"/>
<path d="M77.26 91.9864C77.26 91.9864 77.941 92.0213 78.6549 91.83C79.0241 91.7318 79.3349 91.5356 79.7002 91.3151L83.2215 89.283V95.6349L80.045 97.4689V101.646L83.1875 99.8323V103.133L77.8691 106.155C77.8691 106.155 77.8118 106.186 77.7418 106.211C77.686 106.229 77.6288 106.242 77.5709 106.251C77.4727 106.269 77.26 106.26 77.26 106.26V91.9864Z" fill="#8EA1D6"/>
<path d="M128.851 69.485C128.851 68.0648 127.985 67.411 126.921 68.0259L95.3271 86.2658C94.2615 86.8817 93.397 88.534 93.397 89.9542C93.397 91.3744 94.2615 92.0281 95.3271 91.4132L126.921 73.1724C127.985 72.5575 128.851 70.9051 128.851 69.485Z" fill="black"/>
<g clip-path="url(#clip1_35_1712)">
<path d="M52.3525 34.3869C38.0708 42.6324 38.0763 56.0575 52.3525 64.2999C66.6287 72.5423 89.8872 72.5423 104.163 64.2999C118.44 56.0575 118.44 42.6292 104.163 34.3869C89.8872 26.1445 66.6287 26.1445 52.3525 34.3869ZM54.6159 35.7379C55.0703 35.4888 55.6758 35.3524 56.3034 35.3577C56.931 35.363 57.5309 35.5097 57.9753 35.7664C58.4273 36.0274 58.6813 36.3813 58.6813 36.7504C58.6813 37.1195 58.4273 37.4735 57.9753 37.7344C57.5233 37.9954 56.9102 38.142 56.2709 38.142C55.6316 38.142 55.0186 37.9954 54.5665 37.7344C54.3384 37.6028 54.1583 37.4461 54.037 37.2736C53.9156 37.1011 53.8555 36.9163 53.8601 36.7302C53.8647 36.544 53.9339 36.3602 54.0638 36.1898C54.1936 36.0194 54.3813 35.8657 54.6159 35.7379ZM61.3238 35.1051C64.8762 33.7012 68.9155 32.7606 73.1609 32.3486C77.4063 31.9366 81.7562 32.0632 85.9085 32.7194L88.4349 36.5005C88.8733 37.1522 90.1502 37.4781 91.2792 37.2313L96.8636 35.9879C98.1931 36.6168 99.4253 37.3113 100.546 38.0635L98.3926 39.307C98.1789 39.4304 98.2337 39.5633 98.4419 39.6835L99.4284 40.253C101.752 41.5946 100.952 42.6451 99.9271 43.3823C98.9571 44.0879 97.1596 44.4486 96.3375 44.1512C92.0574 42.4267 90.2105 42.6008 87.1689 42.8064C87.9417 40.8162 88.1554 38.4084 85.5139 36.8833C82.6586 35.2348 78.9046 35.3266 76.6906 35.586C73.5832 35.9562 71.2651 37.0099 70.7061 37.3326L48.456 50.1787C48.0956 46.418 49.8927 42.6936 53.5691 39.5822L58.9453 39.655C60.1565 39.6708 61.1648 39.1203 61.1868 38.4179L61.3238 35.1051ZM49.7164 56.3739C50.1727 56.1253 50.7789 55.9892 51.4062 55.9945C52.0335 55.9999 52.6325 56.1462 53.0759 56.4024C53.5279 56.6634 53.7819 57.0173 53.7819 57.3864C53.7819 57.7555 53.5279 58.1095 53.0759 58.3705C52.6239 58.6314 52.0108 58.778 51.3715 58.778C50.7322 58.778 50.1192 58.6314 49.6671 58.3705C49.439 58.2389 49.2589 58.0822 49.1376 57.9097C49.0162 57.7372 48.9561 57.5523 48.9607 57.3662C48.9653 57.18 49.0345 56.9963 49.1644 56.8258C49.2942 56.6554 49.4819 56.5017 49.7164 56.3739ZM90.4297 32.9567C90.886 32.7081 91.4922 32.572 92.1195 32.5773C92.7467 32.5826 93.3457 32.729 93.7892 32.9852C94.2412 33.2462 94.4951 33.6001 94.4951 33.9692C94.4951 34.3383 94.2412 34.6922 93.7892 34.9532C93.3371 35.2142 92.724 35.3608 92.0848 35.3608C91.4455 35.3608 90.8324 35.2142 90.3804 34.9532C90.1523 34.8216 89.9722 34.6649 89.8509 34.4924C89.7295 34.3199 89.6694 34.1351 89.674 33.9489C89.6786 33.7628 89.7478 33.579 89.8776 33.4086C90.0075 33.2382 90.1952 33.0845 90.4297 32.9567ZM53.2787 54.7223L56.249 53.0074L69.6429 60.7403L63.6474 64.2018C60.3068 63.1281 57.3572 61.6916 54.9611 59.9715L56.9998 56.9087C57.4327 56.2537 56.8737 55.5196 55.7393 55.2697L53.2787 54.7223ZM65.8176 47.6474L72.8927 43.5626C73.2599 43.3506 75.8959 42.316 77.5565 43.2747C78.932 44.0689 77.7263 45.3345 76.3289 46.1413L69.7634 49.9319L65.8176 47.6474ZM75.4411 53.2035L80.8611 50.0743C81.3543 49.7895 83.6506 48.6283 87.0867 49.8212C88.1444 50.185 91.3723 51.4981 92.578 51.8208C93.8878 52.2037 97.1705 52.5865 98.568 51.7797L107.413 46.6729C107.614 47.4735 107.717 48.2813 107.72 49.0903L103.347 50.7229C102.327 51.1026 102.037 51.8905 102.695 52.479L105.829 55.276C104.326 57.5823 101.977 59.674 98.9451 61.4082C95.9129 63.1425 92.268 64.4786 88.2595 65.3251L83.4149 63.5152C82.3956 63.1355 81.0365 63.3001 80.3788 63.8886L77.6113 66.3597C76.2828 66.3478 74.9572 66.2844 73.6435 66.1699L90.7805 56.2758C90.9723 56.1651 91.0709 56.0702 90.8901 55.9658L84.8288 52.4663C84.6535 52.3651 84.4836 52.4189 84.2918 52.5296L79.2773 55.4247L75.4411 53.2035ZM81.4146 65.7839C81.8709 65.5353 82.477 65.3992 83.1043 65.4045C83.7316 65.4098 84.3306 65.5561 84.774 65.8123C85.2261 66.0733 85.48 66.4273 85.48 66.7964C85.48 67.1654 85.2261 67.5194 84.774 67.7804C84.322 68.0414 83.7089 68.188 83.0697 68.188C82.4304 68.188 81.8173 68.0414 81.3653 67.7804C81.1371 67.6488 80.9571 67.4921 80.8357 67.3196C80.7144 67.1471 80.6542 66.9623 80.6588 66.7761C80.6634 66.5899 80.7327 66.4062 80.8625 66.2357C80.9923 66.0653 81.1801 65.9116 81.4146 65.7839ZM106.728 51.2576C107.184 51.009 107.791 50.8729 108.418 50.8783C109.045 50.8836 109.644 51.0299 110.088 51.2861C110.54 51.5471 110.794 51.9011 110.794 52.2701C110.794 52.6392 110.54 52.9932 110.088 53.2542C109.636 53.5151 109.023 53.6618 108.383 53.6618C107.744 53.6618 107.131 53.5151 106.679 53.2542C106.451 53.1226 106.271 52.9659 106.149 52.7934C106.028 52.6209 105.968 52.436 105.972 52.2499C105.977 52.0637 106.046 51.88 106.176 51.7095C106.306 51.5391 106.494 51.3854 106.728 51.2576Z" fill="black"/>
<path fill-rule="evenodd" clip-rule="evenodd" d="M102.717 35.2222C109.204 38.9673 112.848 44.0469 112.848 49.3434C112.848 54.6399 109.204 59.7194 102.717 63.4646C96.2299 67.2098 87.4318 69.3138 78.258 69.3138C69.0843 69.3138 60.2862 67.2098 53.7994 63.4646C47.3125 59.7194 43.6683 54.6399 43.6683 49.3434C43.6683 44.0469 47.3125 38.9673 53.7994 35.2222C60.2862 31.477 69.0843 29.373 78.258 29.373C87.4318 29.373 96.2298 31.477 102.717 35.2222ZM99.8943 34.1242L106.071 33.2858L104.618 36.8517L110.959 36.7283L108.334 40.06L114.598 40.6517L110.888 43.6291L116.839 44.9137L112.192 47.4133L117.596 49.3434L112.192 51.2735L116.839 53.7731L110.888 55.0577L114.598 58.0351L108.334 58.6267L110.959 61.9585L104.618 61.8351L106.071 65.401L99.8943 64.5625L100.108 68.2233L94.3373 66.7078L93.3125 70.3243L88.1555 68.1822L85.9305 71.6184L81.601 68.9353L78.258 72.055L74.915 68.9353L70.5856 71.6184L68.3606 68.1822L63.2036 70.3243L62.1788 66.7078L56.408 68.2233L56.6217 64.5625L50.4454 65.401L51.8977 61.8351L45.557 61.9585L48.1821 58.6267L41.918 58.0351L45.6282 55.0577L39.6766 53.7731L44.3239 51.2735L38.9203 49.3434L44.3239 47.4133L39.6766 44.9137L45.6282 43.6291L41.918 40.6517L48.1821 40.06L45.557 36.7283L51.8977 36.8517L50.4454 33.2858L56.6217 34.1242L56.408 30.4634L62.1788 31.979L63.2036 28.3625L68.3606 30.5046L70.5856 27.0684L74.915 29.7515L78.258 26.6317L81.601 29.7515L85.9305 27.0684L88.1555 30.5046L93.3125 28.3625L94.3373 31.979L100.108 30.4634L99.8943 34.1242Z" fill="black" stroke="black" stroke-width="1.89844" stroke-linecap="round" stroke-linejoin="round"/>
</g>
</g>
<defs>
<filter id="filter0_f_35_1712" x="56.8987" y="54.0103" width="90.2756" height="50.627" filterUnits="userSpaceOnUse" color-interpolation-filters="sRGB">
<feFlood flood-opacity="0" result="BackgroundImageFix"/>
<feBlend mode="normal" in="SourceGraphic" in2="BackgroundImageFix" result="shape"/>
<feGaussianBlur stdDeviation="3.375" result="effect1_foregroundBlur_35_1712"/>
</filter>
<clipPath id="clip0_35_1712">
<rect width="306" height="170" fill="white"/>
</clipPath>
<clipPath id="clip1_35_1712">
<rect width="91.125" height="91.125" rx="12.6562" transform="matrix(0.866025 -0.5 0.866025 0.5 0.4375 49.375)" fill="white"/>
</clipPath>
</defs>
</svg>
